<svg xmlns="http://www.w3.org/2000/svg" width="500" height="500" viewBox="151 130 200 250" version="1.1"><path d="M 129.998 154.250 L 129.997 167.500 129.336 202.750 L 128.676 238 143.338 238 L 158 238 158 235.500 L 158 233 147 233 L 136 233 136 225 L 136 217 145 217 L 154 217 154 214.500 L 154 212 145 212 L 136 212 136 204 L 136 196 147 196 L 158 196 158 193.500 L 158 191 146.500 191 L 135 191 135 168.500 L 135 146 215.893 146 L 296.786 146 297.393 147.582 L 298 149.164 297.977 154.832 L 297.954 160.500 299.667 180.222 L 301.380 199.944 297.940 204.722 L 294.500 209.500 294.674 225.500 L 294.848 241.500 295.824 245.500 L 296.799 249.500 296.908 240.500 L 297.017 231.500 297.656 226.180 L 298.295 220.860 299.132 222.180 L 299.969 223.500 300.093 230.500 L 300.217 237.500 300.962 243.500 L 301.706 249.500 301.853 238.375 L 302 227.250 302.641 224.044 L 303.282 220.839 304.126 222.169 L 304.969 223.500 305.055 234 L 305.141 244.500 306 246.500 L 306.859 248.500 307.029 237 L 307.199 225.500 307.910 223 L 308.620 220.500 309.310 223.875 L 310 227.250 310 237.825 L 310 248.400 311.173 247.227 L 312.346 246.054 312.423 227.211 L 312.500 208.368 309.500 204.434 L 306.500 200.500 306.781 186 L 307.062 171.500 308.281 159 L 309.500 146.500 319.222 146.214 L 328.944 145.928 329.428 148.214 L 329.913 150.500 330.929 162 L 331.945 173.500 332.612 186.556 L 333.279 199.611 329.212 202.832 L 325.145 206.053 323.428 210.550 L 321.710 215.047 322.325 222.321 L 322.940 229.596 324.935 236.048 L 326.930 242.500 329.751 245.875 L 332.572 249.250 335.480 249.250 L 338.387 249.250 341.080 246.236 L 343.773 243.222 345.998 237.361 L 348.223 231.500 348.741 222.908 L 349.259 214.316 348.054 210.663 L 346.848 207.009 342.424 203.384 L 338 199.759 338.016 191.630 L 338.032 183.500 339.003 171.500 L 339.974 159.500 340.616 152.750 L 341.258 146 354.629 146 L 368 146 368 225.500 L 368 305 331 305 L 294 305 294 296.500 L 294 288 303.500 288 L 313 288 313 285.500 L 313 283 303.500 283 L 294 283 294 275.032 L 294 267.063 305.750 266.782 L 317.500 266.500 317.816 263.750 L 318.133 261 302.566 261 L 287 261 287 286 L 287 311 330 311 L 373 311 373 226 L 373 141 251.500 141 L 130 141 129.998 154.250 M 174 214.500 L 174 238 187 238 L 200 238 200 235.500 L 200 233 190 233 L 180 233 180 212 L 180 191 177 191 L 174 191 174 214.500 M 149.326 261.098 L 145.153 261.870 142.306 263.342 L 139.458 264.814 136.586 267.657 L 133.714 270.500 131.879 274.500 L 130.044 278.500 130.032 286 L 130.020 293.500 132.402 298.617 L 134.785 303.734 138.147 306.298 L 141.509 308.863 144.504 310.031 L 147.500 311.199 153.573 311.224 L 159.646 311.250 164.073 309.288 L 168.500 307.325 169.914 305.612 L 171.328 303.900 169.683 302.255 L 168.039 300.610 163.769 303.026 L 159.500 305.442 153.996 305.454 L 148.491 305.467 144.817 303.196 L 141.142 300.925 138.971 296.440 L 136.800 291.955 136.800 286 L 136.800 280.045 138.971 275.560 L 141.142 271.075 144.699 268.877 L 148.256 266.679 153.893 266.602 L 159.531 266.526 163.467 268.848 L 167.403 271.170 168.715 269.375 L 170.027 267.581 169.719 266.540 L 169.410 265.500 164.955 263.350 L 160.500 261.200 157 260.763 L 153.500 260.326 149.326 261.098 M 199.083 263.250 L 198.215 265.500 191.003 283.500 L 183.792 301.500 181.910 306.250 L 180.029 311 183.426 311 L 186.823 311 189.582 303.969 L 192.340 296.938 203.410 297.219 L 214.481 297.500 217.069 304 L 219.658 310.500 223.262 310.806 L 226.866 311.113 216.825 286.056 L 206.785 261 203.368 261 L 199.950 261 199.083 263.250 M 240 286 L 240 311 243.500 311 L 247 311 247 300.535 L 247 290.070 257.250 289.785 L 267.500 289.500 267.816 286.750 L 268.133 284 257.566 284 L 247 284 247 275.500 L 247 267 259 267 L 271 267 271 264 L 271 261 255.500 261 L 240 261 240 286 M 198.775 280.023 L 194.212 292 203.223 292 L 212.233 292 211.713 290.250 L 211.192 288.500 207.266 278.273 L 203.339 268.046 198.775 280.023 M 132 344.500 L 132 353 133 353 L 134 353 134 349.500 L 134 346 137.500 346 L 141 346 141 345.063 L 141 344.127 137.750 343.813 L 134.500 343.500 134.184 340.750 L 133.867 338 137.875 338 L 141.882 338 142.500 337 L 143.118 336 137.559 336 L 132 336 132 344.500 M 153.174 338.314 L 151 340.629 151 344.640 L 151 348.651 153.314 350.826 L 155.629 353 159.140 353 L 162.651 353 164.677 350.750 L 166.702 348.500 167.378 346.597 L 168.054 344.695 166.947 341.340 L 165.840 337.985 163.986 336.992 L 162.131 336 158.740 336 L 155.349 336 153.174 338.314 M 180.229 336.669 L 178.958 337.181 177.416 340.163 L 175.873 343.146 176.526 346.117 L 177.178 349.088 179.278 351.044 L 181.377 353 185.014 353 L 188.651 353 190.826 350.686 L 193 348.371 193 344.360 L 193 340.349 190.686 338.174 L 188.371 336 184.936 336.079 L 181.500 336.158 180.229 336.669 M 203 344.500 L 203 353 207.418 353 L 211.836 353 213.455 352.379 L 215.074 351.758 216.625 348.757 L 218.177 345.757 217.549 342.407 L 216.920 339.057 214.738 337.529 L 212.555 336 207.777 336 L 203 336 203 344.500 M 242.011 337.487 L 240.777 338.974 241.379 341.373 L 241.981 343.771 240.490 345.008 L 239 346.245 239 348.422 L 239 350.600 240.200 351.800 L 241.400 353 243.766 353 L 246.131 353 248.005 351.997 L 249.879 350.995 250.498 351.997 L 251.118 353 252.714 353 L 254.310 353 252.774 351.250 L 251.239 349.500 252.049 347.500 L 252.859 345.500 252.930 344.750 L 253 344 252.067 344 L 251.135 344 250.473 346.086 L 249.811 348.171 247.314 345.836 L 244.816 343.500 243.839 341.686 L 242.861 339.872 244.036 338.457 L 245.210 337.042 247.039 338.021 L 248.869 339 249.403 339 L 249.937 339 249.362 337.500 L 248.786 336 246.015 336 L 243.245 336 242.011 337.487 M 276 344.500 L 276 353 280.418 353 L 284.836 353 286.455 352.379 L 288.074 351.758 289.625 348.757 L 291.177 345.757 290.549 342.407 L 289.920 339.057 287.738 337.529 L 285.555 336 280.777 336 L 276 336 276 344.500 M 300 344.500 L 300 353 301.500 353 L 303 353 303 349.500 L 303 346 304.250 346.007 L 305.500 346.014 307.879 349.507 L 310.258 353 311.748 353 L 313.237 353 310.590 349.529 L 307.942 346.058 309.971 344.029 L 312 342 312 340.571 L 312 339.143 310.429 337.571 L 308.857 336 304.429 336 L 300 336 300 344.500 M 322 344.500 L 322 353 323 353 L 324 353 324 344.500 L 324 336 323 336 L 322 336 322 344.500 M 335 344.500 L 335 353 336 353 L 337 353 337 346.351 L 337 339.702 342.034 346.351 L 347.067 353 348.034 353 L 349 353 349 344.500 L 349 336 348.048 336 L 347.095 336 346.798 342.250 L 346.500 348.500 341.692 342.250 L 336.883 336 335.942 336 L 335 336 335 344.500 M 359 344.500 L 359 353 360.500 353 L 362 353 362 349 L 362 345 362.916 345 L 363.832 345 367 349 L 370.168 353 371.651 353 L 373.134 353 369.470 348.529 L 365.807 344.058 368.918 340.284 L 372.029 336.510 371.047 336.182 L 370.066 335.855 366.929 339.428 L 363.793 343 362.896 343 L 362 343 362 339.500 L 362 336 360.500 336 L 359 336 359 344.500 M 154.557 340.223 L 153 342.445 153 344.500 L 153 346.555 154.557 348.777 L 156.113 351 158.902 351 L 161.690 351 163.345 349.171 L 165 347.343 165 344.326 L 165 341.310 163.171 339.655 L 161.343 338 158.728 338 L 156.113 338 154.557 340.223 M 180.571 339.571 L 179 341.143 179 344.416 L 179 347.690 180.829 349.345 L 182.657 351 185.272 351 L 187.887 351 189.443 348.777 L 191 346.555 191 344.500 L 191 342.445 189.443 340.223 L 187.887 338 185.015 338 L 182.143 338 180.571 339.571 M 205 344.500 L 205 351 208.429 351 L 211.857 351 213.429 349.429 L 215 347.857 215 344.500 L 215 341.143 213.429 339.571 L 211.857 338 208.429 338 L 205 338 205 344.500 M 278 344.500 L 278 351 281.429 351 L 284.857 351 286.429 349.429 L 288 347.857 288 344.500 L 288 341.143 286.429 339.571 L 284.857 338 281.429 338 L 278 338 278 344.500 M 303 341 L 303 344.133 305.750 343.816 L 308.500 343.500 308.500 341 L 308.500 338.500 305.750 338.184 L 303 337.867 303 341 M 241.503 346.991 L 240.871 348.982 241.494 349.991 L 242.118 351 244.392 351 L 246.667 351 247.342 350.324 L 248.018 349.648 245.835 347.324 L 243.651 345 242.893 345 L 242.135 345 241.503 346.991" stroke="none" fill="#000000" fill-rule="evenodd"/><path d="M 0 250.002 L 0 500.004 250.250 499.752 L 500.500 499.500 500.752 249.750 L 501.004 0 250.502 0 L 0 0 0 250.002 M 0.492 250.500 L 0.492 500.500 0.750 375.170 L 1.008 249.839 0.750 125.170 L 0.492 0.500 0.492 250.500 M 129.998 154.250 L 129.997 167.500 129.336 202.750 L 128.676 238 143.338 238 L 158 238 158 235.500 L 158 233 147 233 L 136 233 136 225 L 136 217 145 217 L 154 217 154 214.500 L 154 212 145 212 L 136 212 136 204 L 136 196 147 196 L 158 196 158 193.500 L 158 191 146.500 191 L 135 191 135 168.500 L 135 146 215.893 146 L 296.786 146 297.393 147.582 L 298 149.164 297.977 154.832 L 297.954 160.500 299.667 180.222 L 301.380 199.944 297.940 204.722 L 294.500 209.500 294.674 225.500 L 294.848 241.500 295.824 245.500 L 296.799 249.500 296.908 240.500 L 297.017 231.500 297.656 226.180 L 298.295 220.860 299.132 222.180 L 299.969 223.500 300.093 230.500 L 300.217 237.500 300.962 243.500 L 301.706 249.500 301.853 238.375 L 302 227.250 302.641 224.044 L 303.282 220.839 304.126 222.169 L 304.969 223.500 305.055 234 L 305.141 244.500 306 246.500 L 306.859 248.500 307.029 237 L 307.199 225.500 307.910 223 L 308.620 220.500 309.310 223.875 L 310 227.250 310 237.825 L 310 248.400 311.173 247.227 L 312.346 246.054 312.423 227.211 L 312.500 208.368 309.500 204.434 L 306.500 200.500 306.781 186 L 307.062 171.500 308.281 159 L 309.500 146.500 319.222 146.214 L 328.944 145.928 329.428 148.214 L 329.913 150.500 330.929 162 L 331.945 173.500 332.612 186.556 L 333.279 199.611 329.212 202.832 L 325.145 206.053 323.428 210.550 L 321.710 215.047 322.325 222.321 L 322.940 229.596 324.935 236.048 L 326.930 242.500 329.751 245.875 L 332.572 249.250 335.480 249.250 L 338.387 249.250 341.080 246.236 L 343.773 243.222 345.998 237.361 L 348.223 231.500 348.741 222.908 L 349.259 214.316 348.054 210.663 L 346.848 207.009 342.424 203.384 L 338 199.759 338.016 191.630 L 338.032 183.500 339.003 171.500 L 339.974 159.500 340.616 152.750 L 341.258 146 354.629 146 L 368 146 368 225.500 L 368 305 331 305 L 294 305 294 296.500 L 294 288 303.500 288 L 313 288 313 285.500 L 313 283 303.500 283 L 294 283 294 275.032 L 294 267.063 305.750 266.782 L 317.500 266.500 317.816 263.750 L 318.133 261 302.566 261 L 287 261 287 286 L 287 311 330 311 L 373 311 373 226 L 373 141 251.500 141 L 130 141 129.998 154.250 M 174 214.500 L 174 238 187 238 L 200 238 200 235.500 L 200 233 190 233 L 180 233 180 212 L 180 191 177 191 L 174 191 174 214.500 M 149.326 261.098 L 145.153 261.870 142.306 263.342 L 139.458 264.814 136.586 267.657 L 133.714 270.500 131.879 274.500 L 130.044 278.500 130.032 286 L 130.020 293.500 132.402 298.617 L 134.785 303.734 138.147 306.298 L 141.509 308.863 144.504 310.031 L 147.500 311.199 153.573 311.224 L 159.646 311.250 164.073 309.288 L 168.500 307.325 169.914 305.612 L 171.328 303.900 169.683 302.255 L 168.039 300.610 163.769 303.026 L 159.500 305.442 153.996 305.454 L 148.491 305.467 144.817 303.196 L 141.142 300.925 138.971 296.440 L 136.800 291.955 136.800 286 L 136.800 280.045 138.971 275.560 L 141.142 271.075 144.699 268.877 L 148.256 266.679 153.893 266.602 L 159.531 266.526 163.467 268.848 L 167.403 271.170 168.715 269.375 L 170.027 267.581 169.719 266.540 L 169.410 265.500 164.955 263.350 L 160.500 261.200 157 260.763 L 153.500 260.326 149.326 261.098 M 199.083 263.250 L 198.215 265.500 191.003 283.500 L 183.792 301.500 181.910 306.250 L 180.029 311 183.426 311 L 186.823 311 189.582 303.969 L 192.340 296.938 203.410 297.219 L 214.481 297.500 217.069 304 L 219.658 310.500 223.262 310.806 L 226.866 311.113 216.825 286.056 L 206.785 261 203.368 261 L 199.950 261 199.083 263.250 M 240 286 L 240 311 243.500 311 L 247 311 247 300.535 L 247 290.070 257.250 289.785 L 267.500 289.500 267.816 286.750 L 268.133 284 257.566 284 L 247 284 247 275.500 L 247 267 259 267 L 271 267 271 264 L 271 261 255.500 261 L 240 261 240 286 M 198.775 280.023 L 194.212 292 203.223 292 L 212.233 292 211.713 290.250 L 211.192 288.500 207.266 278.273 L 203.339 268.046 198.775 280.023 M 132 344.500 L 132 353 133 353 L 134 353 134 349.500 L 134 346 137.500 346 L 141 346 141 345.063 L 141 344.127 137.750 343.813 L 134.500 343.500 134.184 340.750 L 133.867 338 137.875 338 L 141.882 338 142.500 337 L 143.118 336 137.559 336 L 132 336 132 344.500 M 153.174 338.314 L 151 340.629 151 344.640 L 151 348.651 153.314 350.826 L 155.629 353 159.140 353 L 162.651 353 164.677 350.750 L 166.702 348.500 167.378 346.597 L 168.054 344.695 166.947 341.340 L 165.840 337.985 163.986 336.992 L 162.131 336 158.740 336 L 155.349 336 153.174 338.314 M 180.229 336.669 L 178.958 337.181 177.416 340.163 L 175.873 343.146 176.526 346.117 L 177.178 349.088 179.278 351.044 L 181.377 353 185.014 353 L 188.651 353 190.826 350.686 L 193 348.371 193 344.360 L 193 340.349 190.686 338.174 L 188.371 336 184.936 336.079 L 181.500 336.158 180.229 336.669 M 203 344.500 L 203 353 207.418 353 L 211.836 353 213.455 352.379 L 215.074 351.758 216.625 348.757 L 218.177 345.757 217.549 342.407 L 216.920 339.057 214.738 337.529 L 212.555 336 207.777 336 L 203 336 203 344.500 M 242.011 337.487 L 240.777 338.974 241.379 341.373 L 241.981 343.771 240.490 345.008 L 239 346.245 239 348.422 L 239 350.600 240.200 351.800 L 241.400 353 243.766 353 L 246.131 353 248.005 351.997 L 249.879 350.995 250.498 351.997 L 251.118 353 252.714 353 L 254.310 353 252.774 351.250 L 251.239 349.500 252.049 347.500 L 252.859 345.500 252.930 344.750 L 253 344 252.067 344 L 251.135 344 250.473 346.086 L 249.811 348.171 247.314 345.836 L 244.816 343.500 243.839 341.686 L 242.861 339.872 244.036 338.457 L 245.210 337.042 247.039 338.021 L 248.869 339 249.403 339 L 249.937 339 249.362 337.500 L 248.786 336 246.015 336 L 243.245 336 242.011 337.487 M 276 344.500 L 276 353 280.418 353 L 284.836 353 286.455 352.379 L 288.074 351.758 289.625 348.757 L 291.177 345.757 290.549 342.407 L 289.920 339.057 287.738 337.529 L 285.555 336 280.777 336 L 276 336 276 344.500 M 300 344.500 L 300 353 301.500 353 L 303 353 303 349.500 L 303 346 304.250 346.007 L 305.500 346.014 307.879 349.507 L 310.258 353 311.748 353 L 313.237 353 310.590 349.529 L 307.942 346.058 309.971 344.029 L 312 342 312 340.571 L 312 339.143 310.429 337.571 L 308.857 336 304.429 336 L 300 336 300 344.500 M 322 344.500 L 322 353 323 353 L 324 353 324 344.500 L 324 336 323 336 L 322 336 322 344.500 M 335 344.500 L 335 353 336 353 L 337 353 337 346.351 L 337 339.702 342.034 346.351 L 347.067 353 348.034 353 L 349 353 349 344.500 L 349 336 348.048 336 L 347.095 336 346.798 342.250 L 346.500 348.500 341.692 342.250 L 336.883 336 335.942 336 L 335 336 335 344.500 M 359 344.500 L 359 353 360.500 353 L 362 353 362 349 L 362 345 362.916 345 L 363.832 345 367 349 L 370.168 353 371.651 353 L 373.134 353 369.470 348.529 L 365.807 344.058 368.918 340.284 L 372.029 336.510 371.047 336.182 L 370.066 335.855 366.929 339.428 L 363.793 343 362.896 343 L 362 343 362 339.500 L 362 336 360.500 336 L 359 336 359 344.500 M 154.557 340.223 L 153 342.445 153 344.500 L 153 346.555 154.557 348.777 L 156.113 351 158.902 351 L 161.690 351 163.345 349.171 L 165 347.343 165 344.326 L 165 341.310 163.171 339.655 L 161.343 338 158.728 338 L 156.113 338 154.557 340.223 M 180.571 339.571 L 179 341.143 179 344.416 L 179 347.690 180.829 349.345 L 182.657 351 185.272 351 L 187.887 351 189.443 348.777 L 191 346.555 191 344.500 L 191 342.445 189.443 340.223 L 187.887 338 185.015 338 L 182.143 338 180.571 339.571 M 205 344.500 L 205 351 208.429 351 L 211.857 351 213.429 349.429 L 215 347.857 215 344.500 L 215 341.143 213.429 339.571 L 211.857 338 208.429 338 L 205 338 205 344.500 M 278 344.500 L 278 351 281.429 351 L 284.857 351 286.429 349.429 L 288 347.857 288 344.500 L 288 341.143 286.429 339.571 L 284.857 338 281.429 338 L 278 338 278 344.500 M 303 341 L 303 344.133 305.750 343.816 L 308.500 343.500 308.500 341 L 308.500 338.500 305.750 338.184 L 303 337.867 303 341 M 241.503 346.991 L 240.871 348.982 241.494 349.991 L 242.118 351 244.392 351 L 246.667 351 247.342 350.324 L 248.018 349.648 245.835 347.324 L 243.651 345 242.893 345 L 242.135 345 241.503 346.991" stroke="none" fill="transparent" fill-rule="evenodd"/></svg>